<svg width="40" height="40" viewBox="0 0 40 40" fill="none" xmlns="http://www.w3.org/2000/svg">
<g clip-path="url(#clip0_632_144)">
<circle cx="20" cy="20" r="17" fill="#959595"/>
<path d="M27.9151 24.128C27.8958 24.0868 27.8777 24.0527 27.8609 24.0253C27.5833 23.5324 27.0528 22.9274 26.2698 22.2101L26.2533 22.1937L26.245 22.1856L26.2366 22.1774H26.2282C25.8728 21.8433 25.6478 21.6188 25.5535 21.5038C25.3811 21.2848 25.3424 21.0631 25.4367 20.8384C25.5033 20.6687 25.7534 20.3103 26.1864 19.7626C26.4142 19.4724 26.5946 19.2398 26.7279 19.0646C27.6887 17.8052 28.1053 17.0004 27.9775 16.6499L27.9279 16.568C27.8945 16.5187 27.8084 16.4736 27.6698 16.4325C27.5308 16.3914 27.3531 16.3846 27.1364 16.412L24.7373 16.4283C24.6985 16.4147 24.643 16.416 24.5707 16.4325C24.4984 16.4489 24.4623 16.4572 24.4623 16.4572L24.4206 16.4777L24.3874 16.5025C24.3596 16.5188 24.3291 16.5475 24.2957 16.5886C24.2626 16.6295 24.2348 16.6776 24.2126 16.7323C23.9514 17.3949 23.6545 18.0108 23.3212 18.5802C23.1157 18.9198 22.9269 19.214 22.7546 19.4632C22.5825 19.7122 22.4381 19.8957 22.3215 20.0134C22.2048 20.1311 22.0995 20.2254 22.0049 20.2967C21.9104 20.368 21.8383 20.3981 21.7884 20.3871C21.7384 20.376 21.6913 20.3651 21.6466 20.3542C21.5689 20.3049 21.5064 20.2378 21.4593 20.153C21.412 20.0681 21.3801 19.9613 21.3635 19.8326C21.3469 19.7039 21.3371 19.5931 21.3343 19.5C21.3317 19.407 21.3329 19.2754 21.3385 19.1057C21.3443 18.9359 21.3469 18.821 21.3469 18.7608C21.3469 18.5527 21.351 18.3268 21.3593 18.0832C21.3677 17.8395 21.3745 17.6465 21.3802 17.5043C21.3858 17.3619 21.3884 17.2113 21.3884 17.0525C21.3884 16.8937 21.3786 16.7692 21.3593 16.6788C21.3401 16.5885 21.3107 16.5009 21.272 16.4159C21.2331 16.3311 21.1761 16.2654 21.1012 16.2188C21.0263 16.1723 20.9331 16.1353 20.8222 16.1079C20.5278 16.0422 20.153 16.0067 19.6975 16.0012C18.6645 15.9902 18.0008 16.056 17.7065 16.1984C17.5899 16.2585 17.4843 16.3407 17.39 16.4447C17.29 16.5652 17.276 16.6309 17.3482 16.6417C17.6815 16.691 17.9174 16.8087 18.0563 16.9949L18.1063 17.0935C18.1452 17.1647 18.1841 17.2907 18.223 17.4713C18.2618 17.652 18.2869 17.8518 18.2979 18.0707C18.3256 18.4705 18.3256 18.8127 18.2979 19.0974C18.2701 19.3822 18.2438 19.6039 18.2188 19.7627C18.1937 19.9215 18.1563 20.0501 18.1063 20.1486C18.0563 20.2472 18.023 20.3074 18.0063 20.3293C17.9896 20.3512 17.9757 20.3649 17.9647 20.3704C17.8925 20.3976 17.8174 20.4115 17.7397 20.4115C17.6619 20.4115 17.5676 20.3731 17.4565 20.2965C17.3455 20.2198 17.2303 20.1144 17.1108 19.9802C16.9914 19.8461 16.8567 19.6585 16.7067 19.4176C16.5568 19.1767 16.4013 18.892 16.2403 18.5635L16.107 18.3253C16.0237 18.172 15.9099 17.9488 15.7655 17.656C15.621 17.363 15.4933 17.0796 15.3823 16.8058C15.3379 16.6908 15.2712 16.6033 15.1824 16.543L15.1407 16.5183C15.113 16.4965 15.0685 16.4733 15.0074 16.4485C14.9463 16.4238 14.8825 16.4061 14.8158 16.3952L12.5333 16.4115C12.3 16.4115 12.1417 16.4636 12.0584 16.5677L12.0251 16.6169C12.0084 16.6443 12 16.6881 12 16.7484C12 16.8086 12.0167 16.8825 12.05 16.9701C12.3832 17.7422 12.7456 18.4868 13.1371 19.204C13.5286 19.9213 13.8688 20.4991 14.1575 20.9369C14.4463 21.3749 14.7407 21.7884 15.0406 22.177C15.3405 22.5658 15.539 22.815 15.6362 22.9244C15.7334 23.0341 15.8098 23.1161 15.8653 23.1708L16.0736 23.3679C16.2069 23.4993 16.4026 23.6567 16.6609 23.8401C16.9192 24.0236 17.2052 24.2043 17.519 24.3824C17.8328 24.5602 18.1979 24.7053 18.6145 24.8175C19.031 24.9298 19.4364 24.9749 19.8307 24.9532H20.7887C20.983 24.9366 21.1302 24.8764 21.2303 24.7724L21.2634 24.7313C21.2857 24.6986 21.3066 24.6478 21.3259 24.5795C21.3453 24.511 21.355 24.4356 21.355 24.3536C21.3493 24.1182 21.3675 23.9061 21.4091 23.7172C21.4506 23.5284 21.4979 23.386 21.5508 23.2901C21.6037 23.1943 21.6634 23.1135 21.7299 23.048C21.7965 22.9823 21.8439 22.9425 21.8717 22.9288C21.8994 22.915 21.9215 22.9057 21.9382 22.9001C22.0714 22.8563 22.2283 22.8987 22.409 23.0275C22.5895 23.1562 22.7588 23.315 22.9172 23.5039C23.0755 23.6929 23.2657 23.9049 23.4878 24.1403C23.71 24.3758 23.9043 24.5508 24.0709 24.666L24.2374 24.7645C24.3487 24.8303 24.4931 24.8905 24.6708 24.9453C24.8482 25 25.0037 25.0137 25.1372 24.9863L27.2697 24.9535C27.4807 24.9535 27.6448 24.9191 27.7612 24.8508C27.8779 24.7823 27.9472 24.7069 27.9695 24.6249C27.9918 24.5428 27.993 24.4497 27.9737 24.3455C27.954 24.2417 27.9345 24.169 27.9151 24.128Z" fill="#F9F9F9"/>
</g>
<defs>
<clipPath id="clip0_632_144">
<rect width="40" height="40" fill="white"/>
</clipPath>
</defs>
</svg>
