<svg width="40" height="40" viewBox="0 0 40 40" fill="none" xmlns="http://www.w3.org/2000/svg">
<circle cx="20" cy="20" r="17" fill="#959595"/>
<g clip-path="url(#clip0_632_153)">
<path d="M19.9992 12C17.5421 12 15.5432 13.8523 15.5432 16.1295C15.5432 18.4065 17.5421 20.258 19.9992 20.258C22.4563 20.258 24.4542 18.4065 24.4542 16.1295C24.4542 13.8523 22.4563 12 19.9992 12ZM19.9992 14.4195C21.0162 14.4195 21.8432 15.187 21.8432 16.1295C21.8432 17.0716 21.0162 17.8385 19.9992 17.8385C18.9821 17.8385 18.1543 17.0716 18.1543 16.1295C18.1543 15.187 18.9821 14.4195 19.9992 14.4195ZM16.3255 20.3985C15.8846 20.3921 15.4511 20.5936 15.1996 20.965C14.8153 21.5309 14.9994 22.2776 15.6085 22.6335C16.4143 23.102 17.2886 23.4344 18.1953 23.626L15.7051 25.935C15.1953 26.4077 15.1957 27.1733 15.7056 27.646C15.9612 27.8819 16.2945 28 16.6287 28C16.9625 28 17.2969 27.8817 17.5517 27.6455L19.9982 25.377L22.4468 27.6455C22.9562 28.1181 23.7821 28.1181 24.2924 27.6455C24.8024 27.1731 24.8024 26.4067 24.2924 25.935L21.8011 23.6265C22.7081 23.4349 23.5827 23.1023 24.3878 22.6335C24.9982 22.2776 25.1826 21.5301 24.7984 20.965C24.4137 20.399 23.6084 20.2285 22.9976 20.585C21.1734 21.6485 18.8229 21.6478 16.9993 20.585C16.7893 20.4625 16.5564 20.4018 16.3255 20.3985V20.3985Z" fill="#F9F9F9"/>
</g>
<defs>
<clipPath id="clip0_632_153">
<rect width="10" height="16" fill="white" transform="translate(15 12)"/>
</clipPath>
</defs>
</svg>
