<svg width="40" height="40" viewBox="0 0 40 40" fill="none" xmlns="http://www.w3.org/2000/svg">
<circle cx="20" cy="20" r="17" fill="#959595"/>
<path d="M23.4993 13.0029L21.6839 13C19.6443 13 18.3262 14.3523 18.3262 16.4454V18.034H16.5008C16.3431 18.034 16.2153 18.1619 16.2153 18.3196V20.6213C16.2153 20.779 16.3432 20.9067 16.5008 20.9067H18.3262V26.7145C18.3262 26.8723 18.4539 27 18.6116 27H20.9932C21.151 27 21.2787 26.8721 21.2787 26.7145V20.9067H23.413C23.5707 20.9067 23.6984 20.779 23.6984 20.6213L23.6993 18.3196C23.6993 18.2439 23.6692 18.1713 23.6157 18.1177C23.5623 18.0641 23.4894 18.034 23.4137 18.034H21.2787V16.6873C21.2787 16.0401 21.4329 15.7115 22.2761 15.7115L23.499 15.7111C23.6566 15.7111 23.7844 15.5832 23.7844 15.4256V13.2884C23.7844 13.1309 23.6568 13.0032 23.4993 13.0029Z" fill="#F9F9F9"/>
</svg>
